<svg xmlns="http://www.w3.org/2000/svg" viewBox="0 0 32 32" fill="none">
  <rect width="32" height="32" rx="8" fill="url(#grad)"/>
  <path d="M16 6c-1 3-4 5-4 9a4 4 0 008 0c0-4-3-6-4-9z" fill="white" opacity="0.9"/>
  <path d="M12 19c0 2.2 1.8 4 4 4s4-1.8 4-4c0-.5-.1-1-.3-1.5C18.5 19 17.3 19.5 16 19.5s-2.5-.5-3.7-2.5c-.2.5-.3 1-.3 1.5z" fill="white" opacity="0.6"/>
  <defs>
    <linearGradient id="grad" x1="0" y1="0" x2="32" y2="32">
      <stop offset="0%" stop-color="#FF6B00"/>
      <stop offset="100%" stop-color="#FF4500"/>
    </linearGradient>
  </defs>
</svg>
